# Blender 3.5.1
# www.blender.org
mtllib Zeo Crystal.mtl
o Mesh_0
v 0.128906 0.710938 0.046875
v 0.128906 0.710938 -0.046875
v 0.128906 0.406250 0.046875
v 0.128906 0.406250 -0.046875
v -0.128906 0.710938 -0.046875
v -0.128906 0.710938 0.046875
v -0.128906 0.406250 -0.046875
v -0.128906 0.406250 0.046875
v -0.128906 0.710938 -0.046875
v 0.128906 0.710938 -0.046875
v -0.128906 0.710938 0.046875
v 0.128906 0.710938 0.046875
v -0.128906 0.406250 0.046875
v 0.128906 0.406250 0.046875
v -0.128906 0.406250 -0.046875
v 0.128906 0.406250 -0.046875
v -0.128906 0.710938 0.046875
v 0.128906 0.710938 0.046875
v -0.128906 0.406250 0.046875
v 0.128906 0.406250 0.046875
v 0.128906 0.710938 -0.046875
v -0.128906 0.710938 -0.046875
v 0.128906 0.406250 -0.046875
v -0.128906 0.406250 -0.046875
v 0.128906 0.410156 0.046875
v 0.128906 0.410156 -0.046875
v 0.128906 0.000000 0.046875
v 0.128906 0.000000 -0.046875
v -0.039062 0.410156 -0.046875
v -0.039062 0.410156 0.046875
v -0.039062 0.000000 -0.046875
v -0.039062 0.000000 0.046875
v -0.039062 0.410156 -0.046875
v 0.128906 0.410156 -0.046875
v -0.039062 0.410156 0.046875
v 0.128906 0.410156 0.046875
v -0.039062 0.000000 0.046875
v 0.128906 0.000000 0.046875
v -0.039062 0.000000 -0.046875
v 0.128906 0.000000 -0.046875
v -0.039062 0.410156 0.046875
v 0.128906 0.410156 0.046875
v -0.039062 0.000000 0.046875
v 0.128906 0.000000 0.046875
v 0.128906 0.410156 -0.046875
v -0.039062 0.410156 -0.046875
v 0.128906 0.000000 -0.046875
v -0.039062 0.000000 -0.046875
v -0.040473 0.494869 0.046875
v -0.040473 0.494869 -0.046875
v 0.047915 0.406481 0.046875
v 0.047915 0.406481 -0.046875
v -0.128862 0.406481 -0.046875
v -0.128862 0.406481 0.046875
v -0.040473 0.318093 -0.046875
v -0.040473 0.318093 0.046875
v -0.128862 0.406481 -0.046875
v -0.040473 0.494869 -0.046875
v -0.128862 0.406481 0.046875
v -0.040473 0.494869 0.046875
v -0.040473 0.318093 0.046875
v 0.047915 0.406481 0.046875
v -0.040473 0.318093 -0.046875
v 0.047915 0.406481 -0.046875
v -0.128862 0.406481 0.046875
v -0.040473 0.494869 0.046875
v -0.040473 0.318093 0.046875
v 0.047915 0.406481 0.046875
v -0.040473 0.494869 -0.046875
v -0.128862 0.406481 -0.046875
v 0.047915 0.406481 -0.046875
v -0.040473 0.318093 -0.046875
v 0.128906 0.711000 0.046875
v 0.128906 0.711000 -0.046875
v 0.128906 0.710938 0.046875
v 0.128906 0.710938 -0.046875
v -0.128906 0.711000 -0.046875
v -0.128906 0.711000 0.046875
v -0.128906 0.710938 -0.046875
v -0.128906 0.710938 0.046875
v -0.128906 0.711000 -0.046875
v 0.128906 0.711000 -0.046875
v -0.128906 0.711000 0.046875
v 0.128906 0.711000 0.046875
v -0.128906 0.710938 0.046875
v 0.128906 0.710938 0.046875
v -0.128906 0.710938 -0.046875
v 0.128906 0.710938 -0.046875
v -0.128906 0.711000 0.046875
v 0.128906 0.711000 0.046875
v -0.128906 0.710938 0.046875
v 0.128906 0.710938 0.046875
v 0.128906 0.711000 -0.046875
v -0.128906 0.711000 -0.046875
v 0.128906 0.710938 -0.046875
v -0.128906 0.710938 -0.046875
vn 1.0000 -0.0000 -0.0000
vn -1.0000 -0.0000 -0.0000
vn -0.0000 1.0000 -0.0000
vn -0.0000 -1.0000 -0.0000
vn -0.0000 -0.0000 1.0000
vn -0.0000 -0.0000 -1.0000
vn 0.7071 0.7071 -0.0000
vn -0.7071 -0.7071 -0.0000
vn -0.7071 0.7071 -0.0000
vn 0.7071 -0.7071 -0.0000
vt 0.000000 0.218750
vt 0.054688 0.218750
vt 0.000000 0.160156
vt 0.054688 0.160156
vt 0.000000 0.218750
vt 0.054688 0.218750
vt 0.000000 0.156250
vt 0.054688 0.156250
vt 0.263672 0.779297
vt 0.246094 0.779297
vt 0.263672 0.794922
vt 0.246094 0.794922
vt 0.234375 0.830078
vt 0.226562 0.830078
vt 0.234375 0.828125
vt 0.226562 0.828125
vt 0.000000 0.218750
vt 0.054688 0.218750
vt 0.000000 0.156250
vt 0.054688 0.156250
vt 0.000000 0.218384
vt 0.054688 0.218384
vt 0.000000 0.155884
vt 0.054688 0.155884
vt 0.031250 0.148438
vt 0.062500 0.148438
vt 0.031250 0.023438
vt 0.062500 0.023438
vt 0.031250 0.148438
vt 0.062500 0.148438
vt 0.031250 0.023438
vt 0.062500 0.023438
vt 0.226562 0.828125
vt 0.222656 0.828125
vt 0.226562 0.830078
vt 0.222656 0.830078
vt 0.000000 0.023438
vt 0.062500 0.023438
vt 0.000000 0.000000
vt 0.062500 0.000000
vt 0.031250 0.148438
vt 0.062500 0.148438
vt 0.031250 0.023438
vt 0.062500 0.023438
vt 0.031250 0.148438
vt 0.062500 0.148438
vt 0.031250 0.023438
vt 0.062500 0.023438
vt 0.000000 0.109863
vt 0.001953 0.109863
vt 0.000000 0.105957
vt 0.001953 0.105957
vt 0.000000 0.198486
vt 0.021729 0.198486
vt 0.000000 0.162231
vt 0.021729 0.162231
vt 0.226562 0.828125
vt 0.222656 0.828125
vt 0.226562 0.830078
vt 0.222656 0.830078
vt 0.230469 0.830078
vt 0.226562 0.830078
vt 0.230469 0.828125
vt 0.226562 0.828125
vt 0.031250 0.148438
vt 0.000000 0.148438
vt 0.031250 0.117188
vt 0.000000 0.117188
vt 0.000000 0.148438
vt 0.031250 0.148438
vt 0.000000 0.117188
vt 0.031250 0.117188
vt 0.000000 0.188354
vt 0.001953 0.188354
vt 0.000000 0.180542
vt 0.001953 0.180542
vt 0.000000 0.218750
vt 0.058594 0.218750
vt 0.000000 0.156250
vt 0.058594 0.156250
vt 0.226562 0.828125
vt 0.218750 0.828125
vt 0.226562 0.830078
vt 0.218750 0.830078
vt 0.234375 0.830078
vt 0.226562 0.830078
vt 0.234375 0.828125
vt 0.226562 0.828125
vt 0.000000 0.218750
vt 0.058594 0.218750
vt 0.000000 0.156250
vt 0.058594 0.156250
vt 0.000000 0.218384
vt 0.058594 0.218384
vt 0.000000 0.155884
vt 0.058594 0.155884
s 0
usemtl Material_0
f 1/1/1 3/3/1 2/2/1
f 3/3/1 4/4/1 2/2/1
f 5/5/2 7/7/2 6/6/2
f 7/7/2 8/8/2 6/6/2
f 9/9/3 11/11/3 10/10/3
f 11/11/3 12/12/3 10/10/3
f 13/13/4 15/15/4 14/14/4
f 15/15/4 16/16/4 14/14/4
f 17/17/5 19/19/5 18/18/5
f 19/19/5 20/20/5 18/18/5
f 21/21/6 23/23/6 22/22/6
f 23/23/6 24/24/6 22/22/6
f 25/25/1 27/27/1 26/26/1
f 27/27/1 28/28/1 26/26/1
f 29/29/2 31/31/2 30/30/2
f 31/31/2 32/32/2 30/30/2
f 33/33/3 35/35/3 34/34/3
f 35/35/3 36/36/3 34/34/3
f 37/37/4 39/39/4 38/38/4
f 39/39/4 40/40/4 38/38/4
f 41/41/5 43/43/5 42/42/5
f 43/43/5 44/44/5 42/42/5
f 45/45/6 47/47/6 46/46/6
f 47/47/6 48/48/6 46/46/6
f 49/49/7 51/51/7 50/50/7
f 51/51/7 52/52/7 50/50/7
f 53/53/8 55/55/8 54/54/8
f 55/55/8 56/56/8 54/54/8
f 57/57/9 59/59/9 58/58/9
f 59/59/9 60/60/9 58/58/9
f 61/61/10 63/63/10 62/62/10
f 63/63/10 64/64/10 62/62/10
f 65/65/5 67/67/5 66/66/5
f 67/67/5 68/68/5 66/66/5
f 69/69/6 71/71/6 70/70/6
f 71/71/6 72/72/6 70/70/6
f 73/73/1 75/75/1 74/74/1
f 75/75/1 76/76/1 74/74/1
f 77/77/2 79/79/2 78/78/2
f 79/79/2 80/80/2 78/78/2
f 81/81/3 83/83/3 82/82/3
f 83/83/3 84/84/3 82/82/3
f 85/85/4 87/87/4 86/86/4
f 87/87/4 88/88/4 86/86/4
f 89/89/5 91/91/5 90/90/5
f 91/91/5 92/92/5 90/90/5
f 93/93/6 95/95/6 94/94/6
f 95/95/6 96/96/6 94/94/6
o Mesh_1
v 0.112812 0.410156 0.152478
v 0.112758 0.410156 0.152446
v 0.112812 0.000000 0.152478
v 0.112758 0.000000 0.152446
v 0.056117 0.410156 0.250551
v 0.056171 0.410156 0.250582
v 0.056117 0.000000 0.250551
v 0.056171 0.000000 0.250582
v 0.056117 0.410156 0.250551
v 0.112758 0.410156 0.152446
v 0.056171 0.410156 0.250582
v 0.112812 0.410156 0.152478
v 0.056171 0.000000 0.250582
v 0.112812 0.000000 0.152478
v 0.056117 0.000000 0.250551
v 0.112758 0.000000 0.152446
v 0.056171 0.410156 0.250582
v 0.112812 0.410156 0.152478
v 0.056171 0.000000 0.250582
v 0.112812 0.000000 0.152478
v 0.112758 0.410156 0.152446
v 0.056117 0.410156 0.250551
v 0.112758 0.000000 0.152446
v 0.056117 0.000000 0.250551
v 0.113281 0.410156 0.152406
v 0.113281 0.410156 0.152344
v 0.113281 0.000000 0.152406
v 0.113281 0.000000 0.152344
v 0.000000 0.410156 0.152344
v 0.000000 0.410156 0.152406
v 0.000000 0.000000 0.152344
v 0.000000 0.000000 0.152406
v 0.000000 0.410156 0.152344
v 0.113281 0.410156 0.152344
v 0.000000 0.410156 0.152406
v 0.113281 0.410156 0.152406
v 0.000000 0.000000 0.152406
v 0.113281 0.000000 0.152406
v 0.000000 0.000000 0.152344
v 0.113281 0.000000 0.152344
v 0.000000 0.410156 0.152406
v 0.113281 0.410156 0.152406
v 0.000000 0.000000 0.152406
v 0.113281 0.000000 0.152406
v 0.113281 0.410156 0.152344
v 0.000000 0.410156 0.152344
v 0.113281 0.000000 0.152344
v 0.000000 0.000000 0.152344
v 0.000054 0.410156 0.152313
v 0.000000 0.410156 0.152344
v 0.000054 0.000000 0.152313
v 0.000000 0.000000 0.152344
v 0.056641 0.410156 0.250448
v 0.056695 0.410156 0.250417
v 0.056641 0.000000 0.250448
v 0.056695 0.000000 0.250417
v 0.056641 0.410156 0.250448
v 0.000000 0.410156 0.152344
v 0.056695 0.410156 0.250417
v 0.000054 0.410156 0.152313
v 0.056695 0.000000 0.250417
v 0.000054 0.000000 0.152313
v 0.056641 0.000000 0.250448
v 0.000000 0.000000 0.152344
v 0.056695 0.410156 0.250417
v 0.000054 0.410156 0.152313
v 0.056695 0.000000 0.250417
v 0.000054 0.000000 0.152313
v 0.000000 0.410156 0.152344
v 0.056641 0.410156 0.250448
v 0.000000 0.000000 0.152344
v 0.056641 0.000000 0.250448
v 0.113281 0.410219 0.152344
v 0.113281 0.410156 0.152344
v 0.000000 0.410219 0.152344
v 0.000000 0.410156 0.152344
v 0.000000 0.410219 0.152344
v 0.113281 0.410219 0.152344
v 0.055765 0.410219 0.251953
v 0.000000 0.410156 0.152344
v 0.113281 0.410156 0.152344
v 0.113281 0.410219 0.152344
v 0.000000 0.410219 0.152344
v 0.113281 0.410156 0.152344
v 0.000000 0.410156 0.152344
v 0.113281 0.000063 0.152344
v 0.113281 0.000000 0.152344
v 0.000000 0.000063 0.152344
v 0.000000 0.000063 0.251953
v 0.000000 0.000000 0.152344
v 0.000000 0.000063 0.152344
v 0.113281 0.000063 0.152344
v 0.056407 0.000063 0.249864
v 0.000000 0.000000 0.152344
v 0.113281 0.000000 0.152344
v 0.113281 0.000063 0.152344
v 0.000000 0.000063 0.152344
v 0.113281 0.000000 0.152344
v 0.000000 0.000000 0.152344
vn 0.5001 -0.0000 -0.8660
vn -0.5000 -0.0000 0.8660
vn -0.0000 1.0000 -0.0000
vn -0.0004 1.0000 -0.0000
vn -0.0000 -1.0000 -0.0000
vn 0.8660 -0.0000 0.5000
vn -0.8660 -0.0000 -0.5000
vn 1.0000 -0.0000 -0.0000
vn -1.0000 -0.0000 -0.0000
vn -0.0000 -0.0000 1.0000
vn -0.0000 -0.0000 -1.0000
vn -0.5000 -0.0000 -0.8660
vn 0.5000 -0.0000 0.8660
vn 0.0001 1.0000 -0.0000
vn -0.0001 1.0000 -0.0000
vn 0.8660 -0.0000 -0.5000
vn -0.8660 -0.0000 0.5000
vt 0.031250 0.148438
vt 0.062500 0.148438
vt 0.031250 0.023438
vt 0.062500 0.023438
vt 0.031250 0.148438
vt 0.062500 0.148438
vt 0.031250 0.023438
vt 0.062500 0.023438
vt 0.226562 0.828125
vt 0.222656 0.828125
vt 0.226562 0.830078
vt 0.222656 0.830078
vt 0.000000 0.023438
vt 0.062500 0.023438
vt 0.000000 0.000000
vt 0.062500 0.000000
vt 0.031250 0.148438
vt 0.062500 0.148438
vt 0.031250 0.023438
vt 0.062500 0.023438
vt 0.031250 0.148438
vt 0.062500 0.148438
vt 0.031250 0.023438
vt 0.062500 0.023438
vt 0.031250 0.148438
vt 0.062500 0.148438
vt 0.031250 0.023438
vt 0.062500 0.023438
vt 0.031250 0.148438
vt 0.062500 0.148438
vt 0.031250 0.023438
vt 0.062500 0.023438
vt 0.226562 0.828125
vt 0.222656 0.828125
vt 0.226562 0.830078
vt 0.222656 0.830078
vt 0.000000 0.023438
vt 0.062500 0.023438
vt 0.000000 0.000000
vt 0.062500 0.000000
vt 0.031250 0.148438
vt 0.062500 0.148438
vt 0.031250 0.023438
vt 0.062500 0.023438
vt 0.031250 0.148438
vt 0.062500 0.148438
vt 0.031250 0.023438
vt 0.062500 0.023438
vt 0.031250 0.148438
vt 0.062500 0.148438
vt 0.031250 0.023438
vt 0.062500 0.023438
vt 0.031250 0.148438
vt 0.062500 0.148438
vt 0.031250 0.023438
vt 0.062500 0.023438
vt 0.226562 0.828125
vt 0.222656 0.828125
vt 0.226562 0.830078
vt 0.222656 0.830078
vt 0.000000 0.023438
vt 0.062500 0.023438
vt 0.000000 0.000000
vt 0.062500 0.000000
vt 0.031250 0.148438
vt 0.062500 0.148438
vt 0.031250 0.023438
vt 0.062500 0.023438
vt 0.031250 0.148438
vt 0.062500 0.148438
vt 0.031250 0.023438
vt 0.062500 0.023438
vt 0.226562 0.796082
vt 0.218750 0.796082
vt 0.226562 0.798035
vt 0.000000 0.218384
vt 0.058594 0.218384
vt 0.000000 0.155884
vt 0.058594 0.155884
vt 0.000000 0.218750
vt 0.058594 0.218750
vt 0.000000 0.156250
vt 0.226562 0.828125
vt 0.218750 0.828125
vt 0.226562 0.830078
vt 0.000000 0.218384
vt 0.058594 0.218384
vt 0.000000 0.155884
vt 0.058594 0.155884
s 0
usemtl Material_0
f 97/97/11 99/99/11 98/98/11
f 99/99/11 100/100/11 98/98/11
f 101/101/12 103/103/12 102/102/12
f 103/103/12 104/104/12 102/102/12
f 105/105/13 107/107/13 106/106/13
f 107/107/14 108/108/14 106/106/14
f 109/109/15 111/111/15 110/110/15
f 111/111/15 112/112/15 110/110/15
f 113/113/16 115/115/16 114/114/16
f 115/115/16 116/116/16 114/114/16
f 117/117/17 119/119/17 118/118/17
f 119/119/17 120/120/17 118/118/17
f 121/121/18 123/123/18 122/122/18
f 123/123/18 124/124/18 122/122/18
f 125/125/19 127/127/19 126/126/19
f 127/127/19 128/128/19 126/126/19
f 129/129/13 131/131/13 130/130/13
f 131/131/13 132/132/13 130/130/13
f 133/133/15 135/135/15 134/134/15
f 135/135/15 136/136/15 134/134/15
f 137/137/20 139/139/20 138/138/20
f 139/139/20 140/140/20 138/138/20
f 141/141/21 143/143/21 142/142/21
f 143/143/21 144/144/21 142/142/21
s 1
f 145/145/22 147/147/22 146/146/22
f 147/147/22 148/148/22 146/146/22
s 0
f 149/149/23 151/151/23 150/150/23
f 151/151/23 152/152/23 150/150/23
f 153/153/24 155/155/13 154/154/24
f 155/155/25 156/156/25 154/154/25
f 157/157/15 159/159/15 158/158/15
f 159/159/15 160/160/15 158/158/15
f 161/161/26 163/163/26 162/162/26
f 163/163/26 164/164/26 162/162/26
f 165/165/27 167/167/27 166/166/27
f 167/167/27 168/168/27 166/166/27
f 173/169/13 175/171/13 174/170/13
f 178/172/21 180/174/21 179/173/21
f 180/174/21 181/175/21 179/173/21
f 184/176/19 186/178/19 185/177/19
f 187/179/13 189/181/13 188/180/13
f 192/182/21 194/184/21 193/183/21
f 194/184/21 195/185/21 193/183/21
l 171 172
l 176 177
l 190 191
l 169 170
l 182 183
